{
	"patcher" : 	{
		"fileversion" : 1,
		"appversion" : 		{
			"major" : 8,
			"minor" : 5,
			"revision" : 4,
			"architecture" : "x64",
			"modernui" : 1
		}
,
		"classnamespace" : "box",
		"rect" : [ 100.0, 100.0, 653.0, 686.0 ],
		"bglocked" : 0,
		"openinpresentation" : 0,
		"default_fontsize" : 12.0,
		"default_fontface" : 0,
		"default_fontname" : "Arial",
		"gridonopen" : 1,
		"gridsize" : [ 15.0, 15.0 ],
		"gridsnaponopen" : 1,
		"objectsnaponopen" : 1,
		"statusbarvisible" : 2,
		"toolbarvisible" : 1,
		"lefttoolbarpinned" : 0,
		"toptoolbarpinned" : 0,
		"righttoolbarpinned" : 0,
		"bottomtoolbarpinned" : 0,
		"toolbars_unpinned_last_save" : 0,
		"tallnewobj" : 0,
		"boxanimatetime" : 200,
		"enablehscroll" : 1,
		"enablevscroll" : 1,
		"devicewidth" : 0.0,
		"description" : "",
		"digest" : "",
		"tags" : "",
		"style" : "",
		"subpatcher_template" : "",
		"showontab" : 1,
		"assistshowspatchername" : 0,
		"boxes" : [ 			{
				"box" : 				{
					"bgmode" : 0,
					"border" : 0,
					"clickthrough" : 0,
					"enablehscroll" : 0,
					"enablevscroll" : 0,
					"id" : "obj-7",
					"lockeddragscroll" : 0,
					"lockedsize" : 0,
					"maxclass" : "bpatcher",
					"name" : "patreon_launch.maxpat",
					"numinlets" : 0,
					"numoutlets" : 0,
					"offset" : [ 0.0, 0.0 ],
					"patching_rect" : [ 312.297430977225304, 473.251305000000002, 101.0, 40.0 ],
					"viewvisibility" : 1
				}

			}
, 			{
				"box" : 				{
					"hidden" : 1,
					"id" : "obj-2",
					"maxclass" : "newobj",
					"numinlets" : 1,
					"numoutlets" : 1,
					"outlettype" : [ "" ],
					"patching_rect" : [ 334.166725844144821, 119.5, 70.0, 22.0 ],
					"text" : "loadmess 1"
				}

			}
, 			{
				"box" : 				{
					"id" : "obj-31",
					"maxclass" : "newobj",
					"numinlets" : 1,
					"numoutlets" : 1,
					"outlettype" : [ "" ],
					"patcher" : 					{
						"fileversion" : 1,
						"appversion" : 						{
							"major" : 8,
							"minor" : 5,
							"revision" : 4,
							"architecture" : "x64",
							"modernui" : 1
						}
,
						"classnamespace" : "box",
						"rect" : [ 59.0, 107.0, 640.0, 480.0 ],
						"bglocked" : 0,
						"openinpresentation" : 0,
						"default_fontsize" : 12.0,
						"default_fontface" : 0,
						"default_fontname" : "Arial",
						"gridonopen" : 1,
						"gridsize" : [ 15.0, 15.0 ],
						"gridsnaponopen" : 1,
						"objectsnaponopen" : 1,
						"statusbarvisible" : 2,
						"toolbarvisible" : 1,
						"lefttoolbarpinned" : 0,
						"toptoolbarpinned" : 0,
						"righttoolbarpinned" : 0,
						"bottomtoolbarpinned" : 0,
						"toolbars_unpinned_last_save" : 0,
						"tallnewobj" : 0,
						"boxanimatetime" : 200,
						"enablehscroll" : 1,
						"enablevscroll" : 1,
						"devicewidth" : 0.0,
						"description" : "",
						"digest" : "",
						"tags" : "",
						"style" : "",
						"subpatcher_template" : "",
						"assistshowspatchername" : 0,
						"boxes" : [ 							{
								"box" : 								{
									"id" : "obj-22",
									"maxclass" : "newobj",
									"numinlets" : 1,
									"numoutlets" : 1,
									"outlettype" : [ "" ],
									"patching_rect" : [ 66.0, 143.276313364505768, 76.0, 22.0 ],
									"text" : "prepend ph2"
								}

							}
, 							{
								"box" : 								{
									"id" : "obj-23",
									"maxclass" : "newobj",
									"numinlets" : 1,
									"numoutlets" : 1,
									"outlettype" : [ "" ],
									"patching_rect" : [ 50.0, 168.0, 76.0, 22.0 ],
									"text" : "prepend ph1"
								}

							}
, 							{
								"box" : 								{
									"id" : "obj-24",
									"maxclass" : "newobj",
									"numinlets" : 1,
									"numoutlets" : 3,
									"outlettype" : [ "", "", "" ],
									"patching_rect" : [ 50.0, 100.0, 51.0, 22.0 ],
									"text" : "unjoin 2"
								}

							}
, 							{
								"box" : 								{
									"comment" : "",
									"id" : "obj-26",
									"index" : 1,
									"maxclass" : "inlet",
									"numinlets" : 0,
									"numoutlets" : 1,
									"outlettype" : [ "" ],
									"patching_rect" : [ 50.0, 40.000000198104857, 30.0, 30.0 ]
								}

							}
, 							{
								"box" : 								{
									"comment" : "",
									"id" : "obj-27",
									"index" : 1,
									"maxclass" : "outlet",
									"numinlets" : 1,
									"numoutlets" : 0,
									"patching_rect" : [ 52.0, 250.000015198104848, 30.0, 30.0 ]
								}

							}
 ],
						"lines" : [ 							{
								"patchline" : 								{
									"destination" : [ "obj-27", 0 ],
									"source" : [ "obj-22", 0 ]
								}

							}
, 							{
								"patchline" : 								{
									"destination" : [ "obj-27", 0 ],
									"source" : [ "obj-23", 0 ]
								}

							}
, 							{
								"patchline" : 								{
									"destination" : [ "obj-22", 0 ],
									"source" : [ "obj-24", 1 ]
								}

							}
, 							{
								"patchline" : 								{
									"destination" : [ "obj-23", 0 ],
									"source" : [ "obj-24", 0 ]
								}

							}
, 							{
								"patchline" : 								{
									"destination" : [ "obj-24", 0 ],
									"source" : [ "obj-26", 0 ]
								}

							}
 ]
					}
,
					"patching_rect" : [ 10.900414496660233, 302.118745744228363, 51.0, 22.0 ],
					"saved_object_attributes" : 					{
						"description" : "",
						"digest" : "",
						"globalpatchername" : "",
						"tags" : ""
					}
,
					"text" : "p phase"
				}

			}
, 			{
				"box" : 				{
					"id" : "obj-32",
					"maxclass" : "newobj",
					"numinlets" : 1,
					"numoutlets" : 1,
					"outlettype" : [ "" ],
					"patcher" : 					{
						"fileversion" : 1,
						"appversion" : 						{
							"major" : 8,
							"minor" : 5,
							"revision" : 4,
							"architecture" : "x64",
							"modernui" : 1
						}
,
						"classnamespace" : "box",
						"rect" : [ 59.0, 107.0, 640.0, 480.0 ],
						"bglocked" : 0,
						"openinpresentation" : 0,
						"default_fontsize" : 12.0,
						"default_fontface" : 0,
						"default_fontname" : "Arial",
						"gridonopen" : 1,
						"gridsize" : [ 15.0, 15.0 ],
						"gridsnaponopen" : 1,
						"objectsnaponopen" : 1,
						"statusbarvisible" : 2,
						"toolbarvisible" : 1,
						"lefttoolbarpinned" : 0,
						"toptoolbarpinned" : 0,
						"righttoolbarpinned" : 0,
						"bottomtoolbarpinned" : 0,
						"toolbars_unpinned_last_save" : 0,
						"tallnewobj" : 0,
						"boxanimatetime" : 200,
						"enablehscroll" : 1,
						"enablevscroll" : 1,
						"devicewidth" : 0.0,
						"description" : "",
						"digest" : "",
						"tags" : "",
						"style" : "",
						"subpatcher_template" : "",
						"assistshowspatchername" : 0,
						"boxes" : [ 							{
								"box" : 								{
									"id" : "obj-26",
									"maxclass" : "newobj",
									"numinlets" : 1,
									"numoutlets" : 1,
									"outlettype" : [ "" ],
									"patching_rect" : [ 66.0, 124.0, 78.0, 22.0 ],
									"text" : "prepend pw2"
								}

							}
, 							{
								"box" : 								{
									"id" : "obj-27",
									"maxclass" : "newobj",
									"numinlets" : 1,
									"numoutlets" : 1,
									"outlettype" : [ "" ],
									"patching_rect" : [ 50.0, 151.274992257356644, 78.0, 22.0 ],
									"text" : "prepend pw1"
								}

							}
, 							{
								"box" : 								{
									"id" : "obj-28",
									"maxclass" : "newobj",
									"numinlets" : 1,
									"numoutlets" : 3,
									"outlettype" : [ "", "", "" ],
									"patching_rect" : [ 50.0, 100.0, 51.0, 22.0 ],
									"text" : "unjoin 2"
								}

							}
, 							{
								"box" : 								{
									"comment" : "",
									"id" : "obj-11",
									"index" : 1,
									"maxclass" : "inlet",
									"numinlets" : 0,
									"numoutlets" : 1,
									"outlettype" : [ "" ],
									"patching_rect" : [ 49.999983788547524, 40.000004623771673, 30.0, 30.0 ]
								}

							}
, 							{
								"box" : 								{
									"comment" : "",
									"id" : "obj-12",
									"index" : 1,
									"maxclass" : "outlet",
									"numinlets" : 1,
									"numoutlets" : 0,
									"patching_rect" : [ 51.999983788547524, 233.274998623771694, 30.0, 30.0 ]
								}

							}
 ],
						"lines" : [ 							{
								"patchline" : 								{
									"destination" : [ "obj-28", 0 ],
									"source" : [ "obj-11", 0 ]
								}

							}
, 							{
								"patchline" : 								{
									"destination" : [ "obj-12", 0 ],
									"source" : [ "obj-26", 0 ]
								}

							}
, 							{
								"patchline" : 								{
									"destination" : [ "obj-12", 0 ],
									"source" : [ "obj-27", 0 ]
								}

							}
, 							{
								"patchline" : 								{
									"destination" : [ "obj-26", 0 ],
									"source" : [ "obj-28", 1 ]
								}

							}
, 							{
								"patchline" : 								{
									"destination" : [ "obj-27", 0 ],
									"source" : [ "obj-28", 0 ]
								}

							}
 ]
					}
,
					"patching_rect" : [ 107.929939448833466, 302.118745744228363, 75.0, 22.0 ],
					"saved_object_attributes" : 					{
						"description" : "",
						"digest" : "",
						"globalpatchername" : "",
						"tags" : ""
					}
,
					"text" : "p duty_cycle"
				}

			}
, 			{
				"box" : 				{
					"contdata" : 1,
					"id" : "obj-33",
					"maxclass" : "multislider",
					"numinlets" : 1,
					"numoutlets" : 2,
					"outlettype" : [ "", "" ],
					"parameter_enable" : 1,
					"patching_rect" : [ 107.929939448833466, 227.613964397434245, 94.0, 74.0 ],
					"saved_attribute_attributes" : 					{
						"valueof" : 						{
							"parameter_initial" : [ 0.5, 0.5 ],
							"parameter_initial_enable" : 1,
							"parameter_invisible" : 1,
							"parameter_longname" : "multislider",
							"parameter_shortname" : "multislider",
							"parameter_type" : 3
						}

					}
,
					"setminmax" : [ 0.0, 1.0 ],
					"size" : 2,
					"varname" : "multislider"
				}

			}
, 			{
				"box" : 				{
					"id" : "obj-40",
					"maxclass" : "multislider",
					"numinlets" : 1,
					"numoutlets" : 2,
					"outlettype" : [ "", "" ],
					"parameter_enable" : 0,
					"patching_rect" : [ 10.900414496660233, 227.613964397434245, 94.0, 74.0 ],
					"setminmax" : [ 0.0, 1.0 ],
					"size" : 2
				}

			}
, 			{
				"box" : 				{
					"id" : "obj-28",
					"maxclass" : "newobj",
					"numinlets" : 1,
					"numoutlets" : 1,
					"outlettype" : [ "" ],
					"patcher" : 					{
						"fileversion" : 1,
						"appversion" : 						{
							"major" : 8,
							"minor" : 5,
							"revision" : 4,
							"architecture" : "x64",
							"modernui" : 1
						}
,
						"classnamespace" : "box",
						"rect" : [ 0.0, 0.0, 640.0, 480.0 ],
						"bglocked" : 0,
						"openinpresentation" : 0,
						"default_fontsize" : 12.0,
						"default_fontface" : 0,
						"default_fontname" : "Arial",
						"gridonopen" : 1,
						"gridsize" : [ 15.0, 15.0 ],
						"gridsnaponopen" : 1,
						"objectsnaponopen" : 1,
						"statusbarvisible" : 2,
						"toolbarvisible" : 1,
						"lefttoolbarpinned" : 0,
						"toptoolbarpinned" : 0,
						"righttoolbarpinned" : 0,
						"bottomtoolbarpinned" : 0,
						"toolbars_unpinned_last_save" : 0,
						"tallnewobj" : 0,
						"boxanimatetime" : 200,
						"enablehscroll" : 1,
						"enablevscroll" : 1,
						"devicewidth" : 0.0,
						"description" : "",
						"digest" : "",
						"tags" : "",
						"style" : "",
						"subpatcher_template" : "",
						"assistshowspatchername" : 0,
						"boxes" : [ 							{
								"box" : 								{
									"id" : "obj-22",
									"maxclass" : "newobj",
									"numinlets" : 1,
									"numoutlets" : 1,
									"outlettype" : [ "" ],
									"patching_rect" : [ 66.0, 143.276313364505768, 79.0, 22.0 ],
									"text" : "prepend am2"
								}

							}
, 							{
								"box" : 								{
									"id" : "obj-23",
									"maxclass" : "newobj",
									"numinlets" : 1,
									"numoutlets" : 1,
									"outlettype" : [ "" ],
									"patching_rect" : [ 50.0, 168.0, 79.0, 22.0 ],
									"text" : "prepend am1"
								}

							}
, 							{
								"box" : 								{
									"id" : "obj-24",
									"maxclass" : "newobj",
									"numinlets" : 1,
									"numoutlets" : 3,
									"outlettype" : [ "", "", "" ],
									"patching_rect" : [ 50.0, 100.0, 51.0, 22.0 ],
									"text" : "unjoin 2"
								}

							}
, 							{
								"box" : 								{
									"comment" : "",
									"id" : "obj-26",
									"index" : 1,
									"maxclass" : "inlet",
									"numinlets" : 0,
									"numoutlets" : 1,
									"outlettype" : [ "" ],
									"patching_rect" : [ 50.0, 40.000000198104857, 30.0, 30.0 ]
								}

							}
, 							{
								"box" : 								{
									"comment" : "",
									"id" : "obj-27",
									"index" : 1,
									"maxclass" : "outlet",
									"numinlets" : 1,
									"numoutlets" : 0,
									"patching_rect" : [ 52.0, 250.000015198104848, 30.0, 30.0 ]
								}

							}
 ],
						"lines" : [ 							{
								"patchline" : 								{
									"destination" : [ "obj-27", 0 ],
									"source" : [ "obj-22", 0 ]
								}

							}
, 							{
								"patchline" : 								{
									"destination" : [ "obj-27", 0 ],
									"source" : [ "obj-23", 0 ]
								}

							}
, 							{
								"patchline" : 								{
									"destination" : [ "obj-22", 0 ],
									"source" : [ "obj-24", 1 ]
								}

							}
, 							{
								"patchline" : 								{
									"destination" : [ "obj-23", 0 ],
									"source" : [ "obj-24", 0 ]
								}

							}
, 							{
								"patchline" : 								{
									"destination" : [ "obj-24", 0 ],
									"source" : [ "obj-26", 0 ]
								}

							}
 ]
					}
,
					"patching_rect" : [ 10.900414496660233, 203.601543288703908, 59.0, 22.0 ],
					"saved_object_attributes" : 					{
						"description" : "",
						"digest" : "",
						"globalpatchername" : "",
						"tags" : ""
					}
,
					"text" : "p amount"
				}

			}
, 			{
				"box" : 				{
					"id" : "obj-16",
					"maxclass" : "newobj",
					"numinlets" : 1,
					"numoutlets" : 1,
					"outlettype" : [ "" ],
					"patcher" : 					{
						"fileversion" : 1,
						"appversion" : 						{
							"major" : 8,
							"minor" : 5,
							"revision" : 4,
							"architecture" : "x64",
							"modernui" : 1
						}
,
						"classnamespace" : "box",
						"rect" : [ 0.0, 0.0, 640.0, 480.0 ],
						"bglocked" : 0,
						"openinpresentation" : 0,
						"default_fontsize" : 12.0,
						"default_fontface" : 0,
						"default_fontname" : "Arial",
						"gridonopen" : 1,
						"gridsize" : [ 15.0, 15.0 ],
						"gridsnaponopen" : 1,
						"objectsnaponopen" : 1,
						"statusbarvisible" : 2,
						"toolbarvisible" : 1,
						"lefttoolbarpinned" : 0,
						"toptoolbarpinned" : 0,
						"righttoolbarpinned" : 0,
						"bottomtoolbarpinned" : 0,
						"toolbars_unpinned_last_save" : 0,
						"tallnewobj" : 0,
						"boxanimatetime" : 200,
						"enablehscroll" : 1,
						"enablevscroll" : 1,
						"devicewidth" : 0.0,
						"description" : "",
						"digest" : "",
						"tags" : "",
						"style" : "",
						"subpatcher_template" : "",
						"assistshowspatchername" : 0,
						"boxes" : [ 							{
								"box" : 								{
									"id" : "obj-26",
									"maxclass" : "newobj",
									"numinlets" : 1,
									"numoutlets" : 1,
									"outlettype" : [ "" ],
									"patching_rect" : [ 66.0, 124.0, 70.0, 22.0 ],
									"text" : "prepend rt2"
								}

							}
, 							{
								"box" : 								{
									"id" : "obj-27",
									"maxclass" : "newobj",
									"numinlets" : 1,
									"numoutlets" : 1,
									"outlettype" : [ "" ],
									"patching_rect" : [ 50.0, 151.274992257356644, 70.0, 22.0 ],
									"text" : "prepend rt1"
								}

							}
, 							{
								"box" : 								{
									"id" : "obj-28",
									"maxclass" : "newobj",
									"numinlets" : 1,
									"numoutlets" : 3,
									"outlettype" : [ "", "", "" ],
									"patching_rect" : [ 50.0, 100.0, 51.0, 22.0 ],
									"text" : "unjoin 2"
								}

							}
, 							{
								"box" : 								{
									"comment" : "",
									"id" : "obj-11",
									"index" : 1,
									"maxclass" : "inlet",
									"numinlets" : 0,
									"numoutlets" : 1,
									"outlettype" : [ "" ],
									"patching_rect" : [ 49.999983788547524, 40.000004623771673, 30.0, 30.0 ]
								}

							}
, 							{
								"box" : 								{
									"comment" : "",
									"id" : "obj-12",
									"index" : 1,
									"maxclass" : "outlet",
									"numinlets" : 1,
									"numoutlets" : 0,
									"patching_rect" : [ 51.999983788547524, 233.274998623771694, 30.0, 30.0 ]
								}

							}
 ],
						"lines" : [ 							{
								"patchline" : 								{
									"destination" : [ "obj-28", 0 ],
									"source" : [ "obj-11", 0 ]
								}

							}
, 							{
								"patchline" : 								{
									"destination" : [ "obj-12", 0 ],
									"source" : [ "obj-26", 0 ]
								}

							}
, 							{
								"patchline" : 								{
									"destination" : [ "obj-12", 0 ],
									"source" : [ "obj-27", 0 ]
								}

							}
, 							{
								"patchline" : 								{
									"destination" : [ "obj-26", 0 ],
									"source" : [ "obj-28", 1 ]
								}

							}
, 							{
								"patchline" : 								{
									"destination" : [ "obj-27", 0 ],
									"source" : [ "obj-28", 0 ]
								}

							}
 ]
					}
,
					"patching_rect" : [ 114.759169071912766, 203.601543288703908, 39.0, 22.0 ],
					"saved_object_attributes" : 					{
						"description" : "",
						"digest" : "",
						"globalpatchername" : "",
						"tags" : ""
					}
,
					"text" : "p rate"
				}

			}
, 			{
				"box" : 				{
					"bubbletextmargin" : 2,
					"fontsize" : 8.0,
					"id" : "obj-10",
					"maxclass" : "comment",
					"numinlets" : 1,
					"numoutlets" : 0,
					"patching_rect" : [ 133.676793277263641, 363.166446387767792, 21.272727131843567, 16.0 ],
					"text" : "diff"
				}

			}
, 			{
				"box" : 				{
					"bubbletextmargin" : 2,
					"fontsize" : 8.0,
					"id" : "obj-8",
					"maxclass" : "comment",
					"numinlets" : 1,
					"numoutlets" : 0,
					"patching_rect" : [ 96.585883915424347, 363.166446387767792, 21.272727131843567, 16.0 ],
					"text" : "lfo2"
				}

			}
, 			{
				"box" : 				{
					"bubbletextmargin" : 2,
					"fontsize" : 8.0,
					"id" : "obj-6",
					"maxclass" : "comment",
					"numinlets" : 1,
					"numoutlets" : 0,
					"patching_rect" : [ 57.181675016880035, 363.166446387767792, 21.272727131843567, 16.0 ],
					"text" : "lfo1"
				}

			}
, 			{
				"box" : 				{
					"bubbletextmargin" : 2,
					"fontsize" : 8.0,
					"id" : "obj-3",
					"maxclass" : "comment",
					"numinlets" : 1,
					"numoutlets" : 0,
					"patching_rect" : [ 18.627687245607376, 363.166446387767792, 21.272727131843567, 16.0 ],
					"text" : "trig"
				}

			}
, 			{
				"box" : 				{
					"color" : [ 1.0, 0.345098039215686, 0.298039215686275, 1.0 ],
					"id" : "obj-66",
					"maxclass" : "newobj",
					"numinlets" : 1,
					"numoutlets" : 1,
					"outlettype" : [ "signal" ],
					"patching_rect" : [ 125.686055153608322, 379.332556426525116, 29.0, 22.0 ],
					"text" : "thru",
					"textcolor" : [ 1.0, 0.345098039215686, 0.298039215686275, 1.0 ]
				}

			}
, 			{
				"box" : 				{
					"bgcolor" : [ 0.2, 0.2, 0.2, 0.0 ],
					"fgcolor" : [ 1.0, 0.345098039215686, 0.298039215686275, 1.0 ],
					"id" : "obj-65",
					"maxclass" : "scope~",
					"numinlets" : 2,
					"numoutlets" : 0,
					"patching_rect" : [ 10.900414496660233, 417.166446387767792, 130.0, 130.0 ],
					"saved_attribute_attributes" : 					{
						"fgcolor" : 						{
							"expression" : "themecolor.live_active_automation"
						}

					}

				}

			}
, 			{
				"box" : 				{
					"color" : [ 0.090196, 0.658824, 0.901961, 1.0 ],
					"id" : "obj-63",
					"maxclass" : "newobj",
					"numinlets" : 1,
					"numoutlets" : 1,
					"outlettype" : [ "signal" ],
					"patching_rect" : [ 87.131338179111481, 379.332556426525116, 29.0, 22.0 ],
					"text" : "thru",
					"textcolor" : [ 0.090196, 0.658824, 0.901961, 1.0 ]
				}

			}
, 			{
				"box" : 				{
					"color" : [ 0.250980392156863, 0.203921568627451, 0.937254901960784, 1.0 ],
					"id" : "obj-62",
					"maxclass" : "newobj",
					"numinlets" : 1,
					"numoutlets" : 1,
					"outlettype" : [ "signal" ],
					"patching_rect" : [ 49.198286563158035, 379.332556426525116, 29.0, 22.0 ],
					"text" : "thru",
					"textcolor" : [ 0.250980392156863, 0.203921568627451, 0.937254901960784, 1.0 ]
				}

			}
, 			{
				"box" : 				{
					"color" : [ 0.0, 0.854901960784314, 0.282352941176471, 1.0 ],
					"id" : "obj-61",
					"maxclass" : "newobj",
					"numinlets" : 1,
					"numoutlets" : 1,
					"outlettype" : [ "signal" ],
					"patching_rect" : [ 10.900414496660233, 379.332556426525116, 29.0, 22.0 ],
					"text" : "thru",
					"textcolor" : [ 0.0, 0.854901960784314, 0.282352941176471, 1.0 ]
				}

			}
, 			{
				"box" : 				{
					"bgcolor" : [ 0.2, 0.2, 0.2, 0.0 ],
					"fgcolor" : [ 0.250980392156863, 0.203921568627451, 0.937254901960784, 1.0 ],
					"id" : "obj-58",
					"maxclass" : "scope~",
					"numinlets" : 2,
					"numoutlets" : 0,
					"patching_rect" : [ 10.900414496660233, 417.166446387767792, 130.0, 130.0 ],
					"saved_attribute_attributes" : 					{
						"fgcolor" : 						{
							"expression" : "themecolor.live_midi_assignment"
						}

					}

				}

			}
, 			{
				"box" : 				{
					"id" : "obj-1",
					"maxclass" : "preset",
					"numinlets" : 1,
					"numoutlets" : 5,
					"outlettype" : [ "preset", "int", "preset", "int", "" ],
					"patching_rect" : [ 334.166725844144821, 144.187673330307007, 57.261410266160965, 22.157676130533218 ],
					"preset_data" : [ 						{
							"number" : 1,
							"data" : [ 5, "obj-39", "live.menu", "float", 0.0, 5, "obj-36", "live.menu", "float", 1.0, 6, "obj-30", "multislider", "list", 0.304150914823687, 0.333634945186409, 6, "obj-29", "multislider", "list", 2.439543508194588, 1.997283052753758, 5, "obj-43", "flonum", "float", 0.5, 5, "<invalid>", "slider", "float", 0.0, 5, "<invalid>", "number", "int", 0 ]
						}
, 						{
							"number" : 2,
							"data" : [ 5, "obj-39", "live.menu", "float", 0.0, 5, "obj-36", "live.menu", "float", 0.0, 6, "obj-30", "multislider", "list", 0.304150914823687, 0.333634945186409, 6, "obj-29", "multislider", "list", 2.439543508194588, 1.997283052753758, 5, "obj-43", "flonum", "float", 0.5, 5, "<invalid>", "slider", "float", 0.0, 5, "<invalid>", "number", "int", 0 ]
						}
, 						{
							"number" : 3,
							"data" : [ 5, "obj-39", "live.menu", "float", 0.0, 5, "obj-36", "live.menu", "float", 0.0, 6, "obj-30", "multislider", "list", 0.304150914823687, 0.333634945186409, 6, "obj-29", "multislider", "list", 1.35846239489478, 4.159445279353374, 5, "obj-43", "flonum", "float", 0.5, 5, "<invalid>", "slider", "float", 0.0, 5, "<invalid>", "number", "int", 0 ]
						}
, 						{
							"number" : 4,
							"data" : [ 5, "obj-39", "live.menu", "float", 3.0, 5, "obj-36", "live.menu", "float", 3.0, 6, "obj-30", "multislider", "list", 0.304150914823687, 0.333634945186409, 6, "obj-29", "multislider", "list", 2.78302154025516, 2.78302154025516, 5, "obj-43", "flonum", "float", 0.5, 5, "<invalid>", "slider", "float", 0.0, 5, "<invalid>", "number", "int", 0, 6, "obj-40", "multislider", "list", 0.0, 0.0, 6, "obj-33", "multislider", "list", 0.788623540233973, 0.19162247294676 ]
						}
 ]
				}

			}
, 			{
				"box" : 				{
					"hidden" : 1,
					"id" : "obj-18",
					"maxclass" : "newobj",
					"numinlets" : 0,
					"numoutlets" : 0,
					"patcher" : 					{
						"fileversion" : 1,
						"appversion" : 						{
							"major" : 8,
							"minor" : 5,
							"revision" : 4,
							"architecture" : "x64",
							"modernui" : 1
						}
,
						"classnamespace" : "box",
						"rect" : [ 100.0, 126.0, 653.0, 660.0 ],
						"bglocked" : 0,
						"openinpresentation" : 0,
						"default_fontsize" : 12.0,
						"default_fontface" : 0,
						"default_fontname" : "Arial",
						"gridonopen" : 1,
						"gridsize" : [ 15.0, 15.0 ],
						"gridsnaponopen" : 1,
						"objectsnaponopen" : 1,
						"statusbarvisible" : 2,
						"toolbarvisible" : 1,
						"lefttoolbarpinned" : 0,
						"toptoolbarpinned" : 0,
						"righttoolbarpinned" : 0,
						"bottomtoolbarpinned" : 0,
						"toolbars_unpinned_last_save" : 0,
						"tallnewobj" : 0,
						"boxanimatetime" : 200,
						"enablehscroll" : 1,
						"enablevscroll" : 1,
						"devicewidth" : 0.0,
						"description" : "",
						"digest" : "",
						"tags" : "",
						"style" : "",
						"subpatcher_template" : "",
						"showontab" : 1,
						"assistshowspatchername" : 0,
						"boxes" : [ 							{
								"box" : 								{
									"hidden" : 1,
									"id" : "obj-13",
									"maxclass" : "message",
									"numinlets" : 2,
									"numoutlets" : 1,
									"outlettype" : [ "" ],
									"patching_rect" : [ 574.671099066734314, 298.381299614906311, 63.0, 22.0 ],
									"text" : "writeagain"
								}

							}
, 							{
								"box" : 								{
									"hidden" : 1,
									"id" : "obj-12",
									"maxclass" : "newobj",
									"numinlets" : 1,
									"numoutlets" : 1,
									"outlettype" : [ "bang" ],
									"patching_rect" : [ 496.671099066734314, 228.696287333965302, 58.0, 22.0 ],
									"text" : "loadbang"
								}

							}
, 							{
								"box" : 								{
									"hidden" : 1,
									"id" : "obj-11",
									"maxclass" : "newobj",
									"numinlets" : 1,
									"numoutlets" : 1,
									"outlettype" : [ "" ],
									"patching_rect" : [ 496.671099066734314, 298.381299614906311, 80.0, 22.0 ],
									"text" : "prepend read"
								}

							}
, 							{
								"box" : 								{
									"hidden" : 1,
									"id" : "obj-8",
									"maxclass" : "message",
									"numinlets" : 2,
									"numoutlets" : 1,
									"outlettype" : [ "" ],
									"patching_rect" : [ 496.671099066734314, 253.423959970474243, 99.0, 22.0 ],
									"text" : "cross2_help.json"
								}

							}
, 							{
								"box" : 								{
									"hidden" : 1,
									"id" : "obj-7",
									"maxclass" : "newobj",
									"numinlets" : 1,
									"numoutlets" : 1,
									"outlettype" : [ "" ],
									"patching_rect" : [ 496.671099066734314, 274.315019190311432, 77.0, 22.0 ],
									"text" : "absolutepath"
								}

							}
, 							{
								"box" : 								{
									"hidden" : 1,
									"id" : "obj-52",
									"maxclass" : "newobj",
									"numinlets" : 1,
									"numoutlets" : 4,
									"outlettype" : [ "", "", "", "" ],
									"patching_rect" : [ 347.877966552972794, 20.936821222305298, 135.0, 22.0 ],
									"restore" : 									{
										"button" : [ 0.0 ],
										"live.gain~" : [ -7.587462573027537 ],
										"matrixctrl" : [ 0, 2, 1.0, 1, 1, 1.0, 2, 0, 1.0 ],
										"nls.ar~" : [ 											{
												"__presetid" : "rnbo"
											}
 ],
										"number" : [ 109 ]
									}
,
									"text" : "autopattr @autoname 1",
									"varname" : "u693003378"
								}

							}
, 							{
								"box" : 								{
									"id" : "obj-51",
									"maxclass" : "button",
									"numinlets" : 1,
									"numoutlets" : 1,
									"outlettype" : [ "bang" ],
									"parameter_enable" : 0,
									"patching_rect" : [ 11.75, 8.473684310913086, 24.0, 24.0 ],
									"varname" : "button"
								}

							}
, 							{
								"box" : 								{
									"id" : "obj-49",
									"maxclass" : "newobj",
									"numinlets" : 4,
									"numoutlets" : 1,
									"outlettype" : [ "signal" ],
									"patcher" : 									{
										"fileversion" : 1,
										"appversion" : 										{
											"major" : 8,
											"minor" : 5,
											"revision" : 4,
											"architecture" : "x64",
											"modernui" : 1
										}
,
										"classnamespace" : "box",
										"rect" : [ 84.0, 132.0, 640.0, 480.0 ],
										"bglocked" : 0,
										"openinpresentation" : 0,
										"default_fontsize" : 12.0,
										"default_fontface" : 0,
										"default_fontname" : "Arial",
										"gridonopen" : 1,
										"gridsize" : [ 15.0, 15.0 ],
										"gridsnaponopen" : 1,
										"objectsnaponopen" : 1,
										"statusbarvisible" : 2,
										"toolbarvisible" : 1,
										"lefttoolbarpinned" : 0,
										"toptoolbarpinned" : 0,
										"righttoolbarpinned" : 0,
										"bottomtoolbarpinned" : 0,
										"toolbars_unpinned_last_save" : 0,
										"tallnewobj" : 0,
										"boxanimatetime" : 200,
										"enablehscroll" : 1,
										"enablevscroll" : 1,
										"devicewidth" : 0.0,
										"description" : "",
										"digest" : "",
										"tags" : "",
										"style" : "",
										"subpatcher_template" : "",
										"assistshowspatchername" : 0,
										"boxes" : [ 											{
												"box" : 												{
													"id" : "obj-43",
													"maxclass" : "newobj",
													"numinlets" : 1,
													"numoutlets" : 1,
													"outlettype" : [ "signal" ],
													"patcher" : 													{
														"fileversion" : 1,
														"appversion" : 														{
															"major" : 8,
															"minor" : 5,
															"revision" : 4,
															"architecture" : "x64",
															"modernui" : 1
														}
,
														"classnamespace" : "box",
														"rect" : [ 0.0, 0.0, 640.0, 480.0 ],
														"bglocked" : 0,
														"openinpresentation" : 0,
														"default_fontsize" : 12.0,
														"default_fontface" : 0,
														"default_fontname" : "Arial",
														"gridonopen" : 1,
														"gridsize" : [ 15.0, 15.0 ],
														"gridsnaponopen" : 1,
														"objectsnaponopen" : 1,
														"statusbarvisible" : 2,
														"toolbarvisible" : 1,
														"lefttoolbarpinned" : 0,
														"toptoolbarpinned" : 0,
														"righttoolbarpinned" : 0,
														"bottomtoolbarpinned" : 0,
														"toolbars_unpinned_last_save" : 0,
														"tallnewobj" : 0,
														"boxanimatetime" : 200,
														"enablehscroll" : 1,
														"enablevscroll" : 1,
														"devicewidth" : 0.0,
														"description" : "",
														"digest" : "",
														"tags" : "",
														"style" : "",
														"subpatcher_template" : "",
														"assistshowspatchername" : 0,
														"boxes" : [ 															{
																"box" : 																{
																	"id" : "obj-12",
																	"maxclass" : "newobj",
																	"numinlets" : 1,
																	"numoutlets" : 1,
																	"outlettype" : [ "signal" ],
																	"patching_rect" : [ 50.0, 155.969039857387543, 39.0, 22.0 ],
																	"text" : "mtof~"
																}

															}
, 															{
																"box" : 																{
																	"id" : "obj-11",
																	"maxclass" : "newobj",
																	"numinlets" : 1,
																	"numoutlets" : 1,
																	"outlettype" : [ "signal" ],
																	"patching_rect" : [ 50.0, 127.529401898384094, 42.0, 22.0 ],
																	"text" : "trunc~"
																}

															}
, 															{
																"box" : 																{
																	"id" : "obj-10",
																	"maxclass" : "newobj",
																	"numinlets" : 6,
																	"numoutlets" : 1,
																	"outlettype" : [ "signal" ],
																	"patching_rect" : [ 50.0, 100.0, 111.0, 22.0 ],
																	"text" : "scale~ -1 1 48 60 1"
																}

															}
, 															{
																"box" : 																{
																	"comment" : "",
																	"id" : "obj-41",
																	"index" : 1,
																	"maxclass" : "inlet",
																	"numinlets" : 0,
																	"numoutlets" : 1,
																	"outlettype" : [ "signal" ],
																	"patching_rect" : [ 50.0, 40.0, 30.0, 30.0 ]
																}

															}
, 															{
																"box" : 																{
																	"comment" : "",
																	"id" : "obj-42",
																	"index" : 1,
																	"maxclass" : "outlet",
																	"numinlets" : 1,
																	"numoutlets" : 0,
																	"patching_rect" : [ 50.0, 237.969024999999988, 30.0, 30.0 ]
																}

															}
 ],
														"lines" : [ 															{
																"patchline" : 																{
																	"destination" : [ "obj-11", 0 ],
																	"source" : [ "obj-10", 0 ]
																}

															}
, 															{
																"patchline" : 																{
																	"destination" : [ "obj-12", 0 ],
																	"source" : [ "obj-11", 0 ]
																}

															}
, 															{
																"patchline" : 																{
																	"destination" : [ "obj-42", 0 ],
																	"source" : [ "obj-12", 0 ]
																}

															}
, 															{
																"patchline" : 																{
																	"destination" : [ "obj-10", 0 ],
																	"source" : [ "obj-41", 0 ]
																}

															}
 ]
													}
,
													"patching_rect" : [ 50.0, 166.647053301334381, 44.0, 22.0 ],
													"saved_object_attributes" : 													{
														"description" : "",
														"digest" : "",
														"globalpatchername" : "",
														"tags" : ""
													}
,
													"text" : "p pitch"
												}

											}
, 											{
												"box" : 												{
													"id" : "obj-35",
													"maxclass" : "newobj",
													"numinlets" : 3,
													"numoutlets" : 4,
													"outlettype" : [ "signal", "signal", "signal", "" ],
													"patching_rect" : [ 50.0, 100.0, 244.470595598220825, 22.0 ],
													"text" : "matrix~ 3 3"
												}

											}
, 											{
												"box" : 												{
													"id" : "obj-34",
													"maxclass" : "newobj",
													"numinlets" : 6,
													"numoutlets" : 1,
													"outlettype" : [ "signal" ],
													"patching_rect" : [ 125.156865199406923, 127.647053301334381, 98.0, 22.0 ],
													"text" : "scale~ -1 1 0 1 1"
												}

											}
, 											{
												"box" : 												{
													"id" : "obj-26",
													"maxclass" : "newobj",
													"numinlets" : 2,
													"numoutlets" : 1,
													"outlettype" : [ "signal" ],
													"patching_rect" : [ 200.313730398813846, 161.647053301334381, 55.0, 22.0 ],
													"text" : "sah~ 0.5"
												}

											}
, 											{
												"box" : 												{
													"id" : "obj-23",
													"maxclass" : "newobj",
													"numinlets" : 2,
													"numoutlets" : 1,
													"outlettype" : [ "signal" ],
													"patching_rect" : [ 50.0, 245.464388966560364, 29.5, 22.0 ],
													"text" : "*~"
												}

											}
, 											{
												"box" : 												{
													"id" : "obj-22",
													"maxclass" : "newobj",
													"numinlets" : 6,
													"numoutlets" : 1,
													"outlettype" : [ "signal" ],
													"patching_rect" : [ 200.313730398813846, 193.705867946147919, 98.0, 22.0 ],
													"text" : "scale~ -1 1 0 1 1"
												}

											}
, 											{
												"box" : 												{
													"id" : "obj-16",
													"maxclass" : "newobj",
													"numinlets" : 2,
													"numoutlets" : 1,
													"outlettype" : [ "signal" ],
													"patching_rect" : [ 50.0, 127.647053301334381, 55.0, 22.0 ],
													"text" : "sah~ 0.5"
												}

											}
, 											{
												"box" : 												{
													"id" : "obj-8",
													"maxclass" : "newobj",
													"numinlets" : 3,
													"numoutlets" : 1,
													"outlettype" : [ "signal" ],
													"patching_rect" : [ 50.0, 204.588228225708008, 40.0, 22.0 ],
													"text" : "rect~"
												}

											}
, 											{
												"box" : 												{
													"comment" : "",
													"id" : "obj-44",
													"index" : 2,
													"maxclass" : "inlet",
													"numinlets" : 0,
													"numoutlets" : 1,
													"outlettype" : [ "list" ],
													"patching_rect" : [ 49.999998547412872, 40.000001313743596, 30.0, 30.0 ]
												}

											}
, 											{
												"box" : 												{
													"comment" : "",
													"id" : "obj-45",
													"index" : 1,
													"maxclass" : "inlet",
													"numinlets" : 0,
													"numoutlets" : 1,
													"outlettype" : [ "signal" ],
													"patching_rect" : [ -7.843133452587125, 40.000001313743596, 30.0, 30.0 ]
												}

											}
, 											{
												"box" : 												{
													"comment" : "",
													"id" : "obj-46",
													"index" : 3,
													"maxclass" : "inlet",
													"numinlets" : 0,
													"numoutlets" : 1,
													"outlettype" : [ "signal" ],
													"patching_rect" : [ 162.000005547412883, 40.000001313743596, 30.0, 30.0 ]
												}

											}
, 											{
												"box" : 												{
													"comment" : "",
													"id" : "obj-47",
													"index" : 4,
													"maxclass" : "inlet",
													"numinlets" : 0,
													"numoutlets" : 1,
													"outlettype" : [ "signal" ],
													"patching_rect" : [ 275.000005547412854, 40.000001313743596, 30.0, 30.0 ]
												}

											}
, 											{
												"box" : 												{
													"comment" : "",
													"id" : "obj-48",
													"index" : 1,
													"maxclass" : "outlet",
													"numinlets" : 1,
													"numoutlets" : 0,
													"patching_rect" : [ 49.999998547412872, 327.46439531374358, 30.0, 30.0 ]
												}

											}
 ],
										"lines" : [ 											{
												"patchline" : 												{
													"destination" : [ "obj-43", 0 ],
													"source" : [ "obj-16", 0 ]
												}

											}
, 											{
												"patchline" : 												{
													"destination" : [ "obj-23", 1 ],
													"source" : [ "obj-22", 0 ]
												}

											}
, 											{
												"patchline" : 												{
													"destination" : [ "obj-48", 0 ],
													"source" : [ "obj-23", 0 ]
												}

											}
, 											{
												"patchline" : 												{
													"destination" : [ "obj-22", 0 ],
													"source" : [ "obj-26", 0 ]
												}

											}
, 											{
												"patchline" : 												{
													"destination" : [ "obj-8", 1 ],
													"source" : [ "obj-34", 0 ]
												}

											}
, 											{
												"patchline" : 												{
													"destination" : [ "obj-16", 0 ],
													"source" : [ "obj-35", 0 ]
												}

											}
, 											{
												"patchline" : 												{
													"destination" : [ "obj-26", 0 ],
													"source" : [ "obj-35", 2 ]
												}

											}
, 											{
												"patchline" : 												{
													"destination" : [ "obj-34", 0 ],
													"source" : [ "obj-35", 1 ]
												}

											}
, 											{
												"patchline" : 												{
													"destination" : [ "obj-8", 0 ],
													"source" : [ "obj-43", 0 ]
												}

											}
, 											{
												"patchline" : 												{
													"destination" : [ "obj-35", 0 ],
													"source" : [ "obj-44", 0 ]
												}

											}
, 											{
												"patchline" : 												{
													"destination" : [ "obj-16", 1 ],
													"order" : 1,
													"source" : [ "obj-45", 0 ]
												}

											}
, 											{
												"patchline" : 												{
													"destination" : [ "obj-26", 1 ],
													"order" : 0,
													"source" : [ "obj-45", 0 ]
												}

											}
, 											{
												"patchline" : 												{
													"destination" : [ "obj-35", 1 ],
													"source" : [ "obj-46", 0 ]
												}

											}
, 											{
												"patchline" : 												{
													"destination" : [ "obj-35", 2 ],
													"source" : [ "obj-47", 0 ]
												}

											}
, 											{
												"patchline" : 												{
													"destination" : [ "obj-23", 0 ],
													"source" : [ "obj-8", 0 ]
												}

											}
 ]
									}
,
									"patching_rect" : [ 103.189053098360702, 220.947368383407593, 74.0, 22.0 ],
									"saved_object_attributes" : 									{
										"description" : "",
										"digest" : "",
										"globalpatchername" : "",
										"tags" : ""
									}
,
									"text" : "p cv_routing"
								}

							}
, 							{
								"box" : 								{
									"columns" : 3,
									"id" : "obj-36",
									"maxclass" : "matrixctrl",
									"numinlets" : 1,
									"numoutlets" : 2,
									"one/column" : 1,
									"one/row" : 1,
									"outlettype" : [ "list", "list" ],
									"parameter_enable" : 0,
									"patching_rect" : [ 156.421039402484894, 260.35295170545578, 91.764704287052155, 31.882351517677307 ],
									"rows" : 3,
									"varname" : "matrixctrl"
								}

							}
, 							{
								"box" : 								{
									"bubbletextmargin" : 2,
									"fontsize" : 8.0,
									"id" : "obj-29",
									"maxclass" : "comment",
									"numinlets" : 1,
									"numoutlets" : 0,
									"patching_rect" : [ 394.423421651124954, 166.947368383407593, 21.272727131843567, 16.0 ],
									"text" : "diff"
								}

							}
, 							{
								"box" : 								{
									"bubbletextmargin" : 2,
									"fontsize" : 8.0,
									"id" : "obj-30",
									"maxclass" : "comment",
									"numinlets" : 1,
									"numoutlets" : 0,
									"patching_rect" : [ 357.33251228928566, 166.947368383407593, 21.272727131843567, 16.0 ],
									"text" : "lfo2"
								}

							}
, 							{
								"box" : 								{
									"bubbletextmargin" : 2,
									"fontsize" : 8.0,
									"id" : "obj-31",
									"maxclass" : "comment",
									"numinlets" : 1,
									"numoutlets" : 0,
									"patching_rect" : [ 317.928303390741348, 166.947368383407593, 21.272727131843567, 16.0 ],
									"text" : "lfo1"
								}

							}
, 							{
								"box" : 								{
									"bubbletextmargin" : 2,
									"fontsize" : 8.0,
									"id" : "obj-32",
									"maxclass" : "comment",
									"numinlets" : 1,
									"numoutlets" : 0,
									"patching_rect" : [ 279.374315619468689, 166.947368383407593, 21.272727131843567, 16.0 ],
									"text" : "trig"
								}

							}
, 							{
								"box" : 								{
									"color" : [ 1.0, 0.345098039215686, 0.298039215686275, 1.0 ],
									"id" : "obj-66",
									"maxclass" : "newobj",
									"numinlets" : 1,
									"numoutlets" : 1,
									"outlettype" : [ "signal" ],
									"patching_rect" : [ 386.432683527469635, 183.113478422164917, 29.0, 22.0 ],
									"text" : "thru",
									"textcolor" : [ 1.0, 0.345098039215686, 0.298039215686275, 1.0 ]
								}

							}
, 							{
								"box" : 								{
									"bgcolor" : [ 0.2, 0.2, 0.2, 0.0 ],
									"fgcolor" : [ 1.0, 0.345098039215686, 0.298039215686275, 1.0 ],
									"id" : "obj-65",
									"maxclass" : "scope~",
									"numinlets" : 2,
									"numoutlets" : 0,
									"patching_rect" : [ 271.647042870521545, 220.947368383407593, 130.0, 130.0 ],
									"saved_attribute_attributes" : 									{
										"fgcolor" : 										{
											"expression" : "themecolor.live_active_automation"
										}

									}

								}

							}
, 							{
								"box" : 								{
									"color" : [ 0.090196, 0.658824, 0.901961, 1.0 ],
									"id" : "obj-63",
									"maxclass" : "newobj",
									"numinlets" : 1,
									"numoutlets" : 1,
									"outlettype" : [ "signal" ],
									"patching_rect" : [ 347.877966552972794, 183.113478422164917, 29.0, 22.0 ],
									"text" : "thru",
									"textcolor" : [ 0.090196, 0.658824, 0.901961, 1.0 ]
								}

							}
, 							{
								"box" : 								{
									"color" : [ 0.250980392156863, 0.203921568627451, 0.937254901960784, 1.0 ],
									"id" : "obj-62",
									"maxclass" : "newobj",
									"numinlets" : 1,
									"numoutlets" : 1,
									"outlettype" : [ "signal" ],
									"patching_rect" : [ 309.944914937019348, 183.113478422164917, 29.0, 22.0 ],
									"text" : "thru",
									"textcolor" : [ 0.250980392156863, 0.203921568627451, 0.937254901960784, 1.0 ]
								}

							}
, 							{
								"box" : 								{
									"color" : [ 0.0, 0.854901960784314, 0.282352941176471, 1.0 ],
									"id" : "obj-61",
									"maxclass" : "newobj",
									"numinlets" : 1,
									"numoutlets" : 1,
									"outlettype" : [ "signal" ],
									"patching_rect" : [ 271.647042870521545, 183.113478422164917, 29.0, 22.0 ],
									"text" : "thru",
									"textcolor" : [ 0.0, 0.854901960784314, 0.282352941176471, 1.0 ]
								}

							}
, 							{
								"box" : 								{
									"bgcolor" : [ 0.2, 0.2, 0.2, 0.0 ],
									"fgcolor" : [ 0.250980392156863, 0.203921568627451, 0.937254901960784, 1.0 ],
									"id" : "obj-58",
									"maxclass" : "scope~",
									"numinlets" : 2,
									"numoutlets" : 0,
									"patching_rect" : [ 271.647042870521545, 220.947368383407593, 130.0, 130.0 ],
									"saved_attribute_attributes" : 									{
										"fgcolor" : 										{
											"expression" : "themecolor.live_midi_assignment"
										}

									}

								}

							}
, 							{
								"box" : 								{
									"bgcolor" : [ 0.2, 0.2, 0.2, 0.0 ],
									"fgcolor" : [ 0.0, 0.854901960784314, 0.282352941176471, 1.0 ],
									"id" : "obj-33",
									"maxclass" : "scope~",
									"numinlets" : 2,
									"numoutlets" : 0,
									"patching_rect" : [ 271.647042870521545, 220.947368383407593, 130.0, 130.0 ],
									"range" : [ 0.0, 1.0 ],
									"saved_attribute_attributes" : 									{
										"fgcolor" : 										{
											"expression" : "themecolor.live_macro_assignment"
										}

									}

								}

							}
, 							{
								"box" : 								{
									"bgcolor" : [ 0.0, 0.0, 0.0, 1.0 ],
									"fgcolor" : [ 0.090196, 0.658824, 0.901961, 1.0 ],
									"id" : "obj-59",
									"maxclass" : "scope~",
									"numinlets" : 2,
									"numoutlets" : 0,
									"patching_rect" : [ 271.647042870521545, 220.947368383407593, 130.0, 130.0 ],
									"saved_attribute_attributes" : 									{
										"fgcolor" : 										{
											"expression" : "themecolor.maxwindow_bugtext"
										}

									}

								}

							}
, 							{
								"box" : 								{
									"autorestore" : "cross2_help.json",
									"hidden" : 1,
									"id" : "obj-3",
									"maxclass" : "newobj",
									"numinlets" : 1,
									"numoutlets" : 1,
									"outlettype" : [ "" ],
									"patching_rect" : [ 496.671099066734314, 322.381299614906311, 141.0, 22.0 ],
									"saved_object_attributes" : 									{
										"client_rect" : [ 2750, 336, 3150, 836 ],
										"parameter_enable" : 0,
										"parameter_mappable" : 0,
										"storage_rect" : [ 200, 200, 800, 500 ]
									}
,
									"text" : "pattrstorage cross2_help",
									"varname" : "cross2_help"
								}

							}
, 							{
								"box" : 								{
									"id" : "obj-17",
									"maxclass" : "preset",
									"numinlets" : 1,
									"numoutlets" : 5,
									"outlettype" : [ "preset", "int", "preset", "int", "" ],
									"patching_rect" : [ 352.0, 52.0, 102.962962865829468, 31.111111402511597 ],
									"pattrstorage" : "cross2_help"
								}

							}
, 							{
								"box" : 								{
									"id" : "obj-9",
									"maxclass" : "number",
									"numinlets" : 1,
									"numoutlets" : 2,
									"outlettype" : [ "", "bang" ],
									"parameter_enable" : 0,
									"patching_rect" : [ 35.0, 200.0, 50.0, 22.0 ],
									"varname" : "number"
								}

							}
, 							{
								"box" : 								{
									"id" : "obj-6",
									"maxclass" : "newobj",
									"numinlets" : 2,
									"numoutlets" : 1,
									"outlettype" : [ "signal" ],
									"patching_rect" : [ 9.0, 310.712073504924774, 29.5, 22.0 ],
									"text" : "*~"
								}

							}
, 							{
								"box" : 								{
									"id" : "obj-5",
									"lastchannelcount" : 0,
									"maxclass" : "live.gain~",
									"numinlets" : 2,
									"numoutlets" : 5,
									"orientation" : 1,
									"outlettype" : [ "signal", "signal", "", "float", "list" ],
									"parameter_enable" : 1,
									"patching_rect" : [ 9.0, 354.004640817642212, 136.0, 47.0 ],
									"saved_attribute_attributes" : 									{
										"valueof" : 										{
											"parameter_longname" : "live.gain~[1]",
											"parameter_mmax" : 6.0,
											"parameter_mmin" : -70.0,
											"parameter_shortname" : "live.gain~[1]",
											"parameter_type" : 0,
											"parameter_unitstyle" : 4
										}

									}
,
									"varname" : "live.gain~"
								}

							}
, 							{
								"box" : 								{
									"id" : "obj-4",
									"local" : 1,
									"maxclass" : "ezdac~",
									"numinlets" : 2,
									"numoutlets" : 0,
									"patching_rect" : [ 9.0, 412.651699542999268, 45.0, 45.0 ]
								}

							}
, 							{
								"box" : 								{
									"id" : "obj-2",
									"maxclass" : "newobj",
									"numinlets" : 3,
									"numoutlets" : 1,
									"outlettype" : [ "signal" ],
									"patching_rect" : [ 9.0, 229.0, 45.0, 22.0 ],
									"saved_object_attributes" : 									{
										"parameter_enable" : 0,
										"parameter_mappable" : 0
									}
,
									"text" : "nls.ar~",
									"varname" : "nls.ar~"
								}

							}
, 							{
								"box" : 								{
									"bgmode" : 0,
									"border" : 0,
									"clickthrough" : 0,
									"enablehscroll" : 0,
									"enablevscroll" : 0,
									"id" : "obj-1",
									"lockeddragscroll" : 0,
									"lockedsize" : 0,
									"maxclass" : "bpatcher",
									"name" : "nls.cross_seq2BP~.maxpat",
									"numinlets" : 9,
									"numoutlets" : 5,
									"offset" : [ 0.0, 0.0 ],
									"outlettype" : [ "signal", "signal", "signal", "signal", "signal" ],
									"patching_rect" : [ 9.0, 34.473684310913086, 287.0, 122.0 ],
									"varname" : "nls.cross_seq2BP~",
									"viewvisibility" : 1
								}

							}
 ],
						"lines" : [ 							{
								"patchline" : 								{
									"destination" : [ "obj-2", 0 ],
									"order" : 2,
									"source" : [ "obj-1", 0 ]
								}

							}
, 							{
								"patchline" : 								{
									"destination" : [ "obj-49", 3 ],
									"order" : 1,
									"source" : [ "obj-1", 3 ]
								}

							}
, 							{
								"patchline" : 								{
									"destination" : [ "obj-49", 2 ],
									"order" : 1,
									"source" : [ "obj-1", 2 ]
								}

							}
, 							{
								"patchline" : 								{
									"destination" : [ "obj-49", 1 ],
									"order" : 1,
									"source" : [ "obj-1", 1 ]
								}

							}
, 							{
								"patchline" : 								{
									"destination" : [ "obj-49", 0 ],
									"order" : 1,
									"source" : [ "obj-1", 0 ]
								}

							}
, 							{
								"patchline" : 								{
									"destination" : [ "obj-61", 0 ],
									"order" : 0,
									"source" : [ "obj-1", 0 ]
								}

							}
, 							{
								"patchline" : 								{
									"destination" : [ "obj-62", 0 ],
									"order" : 0,
									"source" : [ "obj-1", 1 ]
								}

							}
, 							{
								"patchline" : 								{
									"destination" : [ "obj-63", 0 ],
									"order" : 0,
									"source" : [ "obj-1", 2 ]
								}

							}
, 							{
								"patchline" : 								{
									"destination" : [ "obj-66", 0 ],
									"order" : 0,
									"source" : [ "obj-1", 3 ]
								}

							}
, 							{
								"patchline" : 								{
									"destination" : [ "obj-3", 0 ],
									"source" : [ "obj-11", 0 ]
								}

							}
, 							{
								"patchline" : 								{
									"destination" : [ "obj-8", 0 ],
									"source" : [ "obj-12", 0 ]
								}

							}
, 							{
								"patchline" : 								{
									"destination" : [ "obj-3", 0 ],
									"source" : [ "obj-13", 0 ]
								}

							}
, 							{
								"patchline" : 								{
									"destination" : [ "obj-51", 0 ],
									"midpoints" : [ 382.490740716457367, 93.0, 306.0, 93.0, 306.0, 3.0, 21.25, 3.0 ],
									"source" : [ "obj-17", 1 ]
								}

							}
, 							{
								"patchline" : 								{
									"destination" : [ "obj-6", 0 ],
									"source" : [ "obj-2", 0 ]
								}

							}
, 							{
								"patchline" : 								{
									"destination" : [ "obj-49", 1 ],
									"source" : [ "obj-36", 0 ]
								}

							}
, 							{
								"patchline" : 								{
									"destination" : [ "obj-6", 1 ],
									"source" : [ "obj-49", 0 ]
								}

							}
, 							{
								"patchline" : 								{
									"destination" : [ "obj-4", 1 ],
									"source" : [ "obj-5", 1 ]
								}

							}
, 							{
								"patchline" : 								{
									"destination" : [ "obj-4", 0 ],
									"source" : [ "obj-5", 0 ]
								}

							}
, 							{
								"patchline" : 								{
									"destination" : [ "obj-1", 0 ],
									"source" : [ "obj-51", 0 ]
								}

							}
, 							{
								"patchline" : 								{
									"destination" : [ "obj-5", 1 ],
									"order" : 0,
									"source" : [ "obj-6", 0 ]
								}

							}
, 							{
								"patchline" : 								{
									"destination" : [ "obj-5", 0 ],
									"order" : 1,
									"source" : [ "obj-6", 0 ]
								}

							}
, 							{
								"patchline" : 								{
									"destination" : [ "obj-33", 0 ],
									"source" : [ "obj-61", 0 ]
								}

							}
, 							{
								"patchline" : 								{
									"destination" : [ "obj-58", 0 ],
									"source" : [ "obj-62", 0 ]
								}

							}
, 							{
								"patchline" : 								{
									"destination" : [ "obj-59", 0 ],
									"source" : [ "obj-63", 0 ]
								}

							}
, 							{
								"patchline" : 								{
									"destination" : [ "obj-65", 0 ],
									"source" : [ "obj-66", 0 ]
								}

							}
, 							{
								"patchline" : 								{
									"destination" : [ "obj-11", 0 ],
									"source" : [ "obj-7", 0 ]
								}

							}
, 							{
								"patchline" : 								{
									"destination" : [ "obj-7", 0 ],
									"source" : [ "obj-8", 0 ]
								}

							}
, 							{
								"patchline" : 								{
									"destination" : [ "obj-2", 2 ],
									"source" : [ "obj-9", 0 ]
								}

							}
 ]
					}
,
					"patching_rect" : [ 422.788920760154724, 17.251305000000002, 122.0, 22.0 ],
					"saved_object_attributes" : 					{
						"description" : "",
						"digest" : "",
						"globalpatchername" : "",
						"tags" : ""
					}
,
					"text" : "p \"bpatcher example\"",
					"varname" : "bpatcher example"
				}

			}
, 			{
				"box" : 				{
					"format" : 6,
					"id" : "obj-43",
					"maxclass" : "flonum",
					"numinlets" : 1,
					"numoutlets" : 2,
					"outlettype" : [ "", "bang" ],
					"parameter_enable" : 0,
					"patching_rect" : [ 225.900414496660233, 227.763785183429718, 50.0, 22.0 ]
				}

			}
, 			{
				"box" : 				{
					"id" : "obj-41",
					"maxclass" : "newobj",
					"numinlets" : 1,
					"numoutlets" : 1,
					"outlettype" : [ "" ],
					"patching_rect" : [ 225.900414496660233, 253.551306843757629, 77.0, 22.0 ],
					"text" : "prepend freq"
				}

			}
, 			{
				"box" : 				{
					"contdata" : 1,
					"id" : "obj-29",
					"maxclass" : "multislider",
					"numinlets" : 1,
					"numoutlets" : 2,
					"outlettype" : [ "", "" ],
					"parameter_enable" : 0,
					"patching_rect" : [ 114.759169071912766, 124.09676194190979, 94.0, 74.0 ],
					"setminmax" : [ 0.0, 10.0 ],
					"size" : 2
				}

			}
, 			{
				"box" : 				{
					"id" : "obj-30",
					"maxclass" : "multislider",
					"numinlets" : 1,
					"numoutlets" : 2,
					"outlettype" : [ "", "" ],
					"parameter_enable" : 0,
					"patching_rect" : [ 10.900414496660233, 124.09676194190979, 94.0, 74.0 ],
					"setminmax" : [ 0.0, 1.0 ],
					"size" : 2
				}

			}
, 			{
				"box" : 				{
					"id" : "obj-34",
					"maxclass" : "newobj",
					"numinlets" : 1,
					"numoutlets" : 1,
					"outlettype" : [ "" ],
					"patching_rect" : [ 228.900414496660233, 192.733125686645508, 71.0, 22.0 ],
					"text" : "prepend w2"
				}

			}
, 			{
				"box" : 				{
					"id" : "obj-36",
					"maxclass" : "live.menu",
					"numinlets" : 1,
					"numoutlets" : 3,
					"outlettype" : [ "", "", "float" ],
					"parameter_enable" : 1,
					"patching_rect" : [ 228.900414496660233, 173.460399508476257, 100.0, 15.0 ],
					"saved_attribute_attributes" : 					{
						"valueof" : 						{
							"parameter_enum" : [ "sine", "saw", "tri", "rect" ],
							"parameter_longname" : "live.menu[19]",
							"parameter_mmax" : 3,
							"parameter_shortname" : "live.menu",
							"parameter_type" : 2
						}

					}
,
					"varname" : "live.menu[1]"
				}

			}
, 			{
				"box" : 				{
					"id" : "obj-37",
					"maxclass" : "newobj",
					"numinlets" : 1,
					"numoutlets" : 1,
					"outlettype" : [ "" ],
					"patching_rect" : [ 228.900414496660233, 149.460399508476257, 71.0, 22.0 ],
					"text" : "prepend w1"
				}

			}
, 			{
				"box" : 				{
					"id" : "obj-39",
					"maxclass" : "live.menu",
					"numinlets" : 1,
					"numoutlets" : 3,
					"outlettype" : [ "", "", "float" ],
					"parameter_enable" : 1,
					"patching_rect" : [ 228.900414496660233, 130.187673330307007, 100.0, 15.0 ],
					"saved_attribute_attributes" : 					{
						"valueof" : 						{
							"parameter_enum" : [ "sine", "saw", "tri", "rect" ],
							"parameter_longname" : "live.menu",
							"parameter_mmax" : 3,
							"parameter_shortname" : "live.menu",
							"parameter_type" : 2
						}

					}
,
					"varname" : "live.menu"
				}

			}
, 			{
				"box" : 				{
					"id" : "obj-4",
					"maxclass" : "newobj",
					"numinlets" : 1,
					"numoutlets" : 5,
					"outlettype" : [ "signal", "signal", "signal", "signal", "signal" ],
					"patching_rect" : [ 10.954402267932892, 338.311185717582703, 171.975537180900574, 22.0 ],
					"saved_object_attributes" : 					{
						"parameter_enable" : 0,
						"parameter_mappable" : 0
					}
,
					"text" : "nls.cross_seq2~"
				}

			}
, 			{
				"box" : 				{
					"bgcolor" : [ 0.2, 0.2, 0.2, 0.0 ],
					"fgcolor" : [ 0.0, 0.854901960784314, 0.282352941176471, 1.0 ],
					"id" : "obj-19",
					"maxclass" : "scope~",
					"numinlets" : 2,
					"numoutlets" : 0,
					"patching_rect" : [ 10.900414496660233, 417.166446387767792, 130.0, 130.0 ],
					"range" : [ 0.0, 1.0 ],
					"saved_attribute_attributes" : 					{
						"fgcolor" : 						{
							"expression" : "themecolor.live_macro_assignment"
						}

					}

				}

			}
, 			{
				"box" : 				{
					"id" : "obj-15",
					"local" : 1,
					"maxclass" : "ezdac~",
					"numinlets" : 2,
					"numoutlets" : 0,
					"patching_rect" : [ 163.759169071912766, 417.166446387767792, 45.0, 45.0 ]
				}

			}
, 			{
				"box" : 				{
					"fontface" : 1,
					"fontname" : "Arial",
					"fontsize" : 24.0,
					"id" : "obj-49",
					"maxclass" : "comment",
					"numinlets" : 1,
					"numoutlets" : 0,
					"patching_rect" : [ 5.0, 5.251305, 266.0, 34.0 ],
					"presentation" : 1,
					"presentation_rect" : [ 136.0, 137.0, 266.0, 34.0 ],
					"text" : "nls.cross_seq2~",
					"textcolor" : [ 0.0, 0.0, 0.0, 1.0 ]
				}

			}
, 			{
				"box" : 				{
					"fontname" : "Arial",
					"fontsize" : 12.0,
					"id" : "obj-5",
					"linecount" : 4,
					"maxclass" : "comment",
					"numinlets" : 1,
					"numoutlets" : 0,
					"patching_rect" : [ 5.0, 41.5, 391.0, 62.0 ],
					"text" : "Generate triggers and measurements from 2 LFOs. Each time one LFO curve intersects another a trigger is produced. The first outlet outputs audio triggers cable. The second outlet outputs a 4-polyphony cable: 2 LFOs, 1 LFO difference (normalized), and the master phasor ramp",
					"textcolor" : [ 0.0, 0.0, 0.0, 1.0 ]
				}

			}
, 			{
				"box" : 				{
					"bgcolor" : [ 0.0, 0.0, 0.0, 1.0 ],
					"fgcolor" : [ 0.090196, 0.658824, 0.901961, 1.0 ],
					"id" : "obj-59",
					"maxclass" : "scope~",
					"numinlets" : 2,
					"numoutlets" : 0,
					"patching_rect" : [ 10.900414496660233, 417.166446387767792, 130.0, 130.0 ],
					"saved_attribute_attributes" : 					{
						"fgcolor" : 						{
							"expression" : "themecolor.maxwindow_bugtext"
						}

					}

				}

			}
, 			{
				"box" : 				{
					"angle" : 0.0,
					"background" : 1,
					"bgcolor" : [ 0.286274509803922, 0.486274509803922, 0.56078431372549, 0.43 ],
					"id" : "obj-83",
					"maxclass" : "panel",
					"mode" : 0,
					"numinlets" : 1,
					"numoutlets" : 0,
					"patching_rect" : [ 5.0, 5.251305, 390.0, 111.248694999999998 ],
					"presentation" : 1,
					"presentation_rect" : [ 131.0, 133.0, 632.0, 58.0 ],
					"proportion" : 0.39,
					"shadow" : -1
				}

			}
 ],
		"lines" : [ 			{
				"patchline" : 				{
					"destination" : [ "obj-4", 0 ],
					"midpoints" : [ 124.259169071912766, 227.680497884750366, 104.900414496660233, 227.680497884750366, 104.900414496660233, 311.680497884750366, 71.900414496660233, 311.680497884750366, 71.900414496660233, 329.680497884750366, 20.454402267932892, 329.680497884750366 ],
					"source" : [ "obj-16", 0 ]
				}

			}
, 			{
				"patchline" : 				{
					"destination" : [ "obj-1", 0 ],
					"source" : [ "obj-2", 0 ]
				}

			}
, 			{
				"patchline" : 				{
					"destination" : [ "obj-4", 0 ],
					"midpoints" : [ 20.400414496660233, 227.680497884750366, -3.099585503339767, 227.680497884750366, -3.099585503339767, 332.680497884750366, 20.454402267932892, 332.680497884750366 ],
					"source" : [ "obj-28", 0 ]
				}

			}
, 			{
				"patchline" : 				{
					"destination" : [ "obj-16", 0 ],
					"source" : [ "obj-29", 0 ]
				}

			}
, 			{
				"patchline" : 				{
					"destination" : [ "obj-28", 0 ],
					"source" : [ "obj-30", 0 ]
				}

			}
, 			{
				"patchline" : 				{
					"destination" : [ "obj-4", 0 ],
					"source" : [ "obj-31", 0 ]
				}

			}
, 			{
				"patchline" : 				{
					"destination" : [ "obj-4", 0 ],
					"source" : [ "obj-32", 0 ]
				}

			}
, 			{
				"patchline" : 				{
					"destination" : [ "obj-32", 0 ],
					"source" : [ "obj-33", 0 ]
				}

			}
, 			{
				"patchline" : 				{
					"destination" : [ "obj-4", 0 ],
					"midpoints" : [ 238.400414496660233, 216.0, 222.0, 216.0, 222.0, 324.0, 20.454402267932892, 324.0 ],
					"source" : [ "obj-34", 0 ]
				}

			}
, 			{
				"patchline" : 				{
					"destination" : [ "obj-34", 0 ],
					"source" : [ "obj-36", 0 ]
				}

			}
, 			{
				"patchline" : 				{
					"destination" : [ "obj-4", 0 ],
					"midpoints" : [ 238.400414496660233, 174.0, 213.0, 174.0, 213.0, 324.0, 20.454402267932892, 324.0 ],
					"source" : [ "obj-37", 0 ]
				}

			}
, 			{
				"patchline" : 				{
					"destination" : [ "obj-37", 0 ],
					"source" : [ "obj-39", 0 ]
				}

			}
, 			{
				"patchline" : 				{
					"destination" : [ "obj-61", 0 ],
					"source" : [ "obj-4", 0 ]
				}

			}
, 			{
				"patchline" : 				{
					"destination" : [ "obj-62", 0 ],
					"source" : [ "obj-4", 1 ]
				}

			}
, 			{
				"patchline" : 				{
					"destination" : [ "obj-63", 0 ],
					"source" : [ "obj-4", 2 ]
				}

			}
, 			{
				"patchline" : 				{
					"destination" : [ "obj-66", 0 ],
					"source" : [ "obj-4", 3 ]
				}

			}
, 			{
				"patchline" : 				{
					"destination" : [ "obj-31", 0 ],
					"source" : [ "obj-40", 0 ]
				}

			}
, 			{
				"patchline" : 				{
					"destination" : [ "obj-4", 0 ],
					"midpoints" : [ 235.400414496660233, 324.0, 20.454402267932892, 324.0 ],
					"source" : [ "obj-41", 0 ]
				}

			}
, 			{
				"patchline" : 				{
					"destination" : [ "obj-41", 0 ],
					"source" : [ "obj-43", 0 ]
				}

			}
, 			{
				"patchline" : 				{
					"destination" : [ "obj-19", 0 ],
					"source" : [ "obj-61", 0 ]
				}

			}
, 			{
				"patchline" : 				{
					"destination" : [ "obj-58", 0 ],
					"source" : [ "obj-62", 0 ]
				}

			}
, 			{
				"patchline" : 				{
					"destination" : [ "obj-59", 0 ],
					"source" : [ "obj-63", 0 ]
				}

			}
, 			{
				"patchline" : 				{
					"destination" : [ "obj-65", 0 ],
					"source" : [ "obj-66", 0 ]
				}

			}
 ],
		"parameters" : 		{
			"obj-18::obj-1::obj-13" : [ "interpolate[1]", "phase2", 0 ],
			"obj-18::obj-1::obj-17" : [ "live.button[8]", "live.button", 0 ],
			"obj-18::obj-1::obj-32" : [ "live.button[9]", "live.button[9]", 0 ],
			"obj-18::obj-1::obj-34" : [ "live.button[10]", "live.button[9]", 0 ],
			"obj-18::obj-1::obj-4" : [ "phase1", "pw1", 0 ],
			"obj-18::obj-1::obj-48" : [ "live.menu[6]", "live.menu", 0 ],
			"obj-18::obj-1::obj-49" : [ "live.menu[7]", "live.menu", 0 ],
			"obj-18::obj-1::obj-5" : [ "phase1[1]", "pw2", 0 ],
			"obj-18::obj-1::obj-9" : [ "interpolate[4]", "phase1", 0 ],
			"obj-18::obj-5" : [ "live.gain~[1]", "live.gain~[1]", 0 ],
			"obj-33" : [ "multislider", "multislider", 0 ],
			"obj-36" : [ "live.menu[19]", "live.menu", 0 ],
			"obj-39" : [ "live.menu", "live.menu", 0 ],
			"parameterbanks" : 			{
				"0" : 				{
					"index" : 0,
					"name" : "",
					"parameters" : [ "-", "-", "-", "-", "-", "-", "-", "-" ]
				}

			}
,
			"parameter_overrides" : 			{
				"obj-18::obj-1::obj-4" : 				{
					"parameter_longname" : "phase1"
				}
,
				"obj-18::obj-1::obj-5" : 				{
					"parameter_longname" : "phase1[1]"
				}

			}
,
			"inherited_shortname" : 1
		}
,
		"dependency_cache" : [ 			{
				"name" : "cross2_help.json",
				"bootpath" : "~/OneDrive/Documents/GitHub/NonlinearSequencer/docs",
				"patcherrelativepath" : "../docs",
				"type" : "JSON",
				"implicit" : 1
			}
, 			{
				"name" : "nls.ar~.mxe64",
				"type" : "mx64"
			}
, 			{
				"name" : "nls.cross_seq2BP~.maxpat",
				"bootpath" : "~/OneDrive/Documents/GitHub/NonlinearSequencer/externals",
				"patcherrelativepath" : "../externals",
				"type" : "JSON",
				"implicit" : 1
			}
, 			{
				"name" : "nls.cross_seq2~.mxe64",
				"type" : "mx64"
			}
, 			{
				"name" : "patreon_launch.maxpat",
				"bootpath" : "~/OneDrive/Documents/GitHub/NonlinearSequencer/externals",
				"patcherrelativepath" : "../externals",
				"type" : "JSON",
				"implicit" : 1
			}
, 			{
				"name" : "thru.maxpat",
				"bootpath" : "C74:/patchers/m4l/Pluggo for Live resources/patches",
				"type" : "JSON",
				"implicit" : 1
			}
 ],
		"autosave" : 0
	}

}
