{
	"patcher" : 	{
		"fileversion" : 1,
		"appversion" : 		{
			"major" : 8,
			"minor" : 5,
			"revision" : 4,
			"architecture" : "x64",
			"modernui" : 1
		}
,
		"classnamespace" : "box",
		"rect" : [ 933.0, 262.0, 952.0, 602.0 ],
		"bglocked" : 0,
		"openinpresentation" : 0,
		"default_fontsize" : 12.0,
		"default_fontface" : 0,
		"default_fontname" : "Arial",
		"gridonopen" : 1,
		"gridsize" : [ 15.0, 15.0 ],
		"gridsnaponopen" : 1,
		"objectsnaponopen" : 1,
		"statusbarvisible" : 2,
		"toolbarvisible" : 1,
		"lefttoolbarpinned" : 0,
		"toptoolbarpinned" : 0,
		"righttoolbarpinned" : 0,
		"bottomtoolbarpinned" : 0,
		"toolbars_unpinned_last_save" : 0,
		"tallnewobj" : 0,
		"boxanimatetime" : 200,
		"enablehscroll" : 1,
		"enablevscroll" : 1,
		"devicewidth" : 0.0,
		"description" : "",
		"digest" : "",
		"tags" : "",
		"style" : "",
		"subpatcher_template" : "",
		"assistshowspatchername" : 0,
		"boxes" : [ 			{
				"box" : 				{
					"id" : "obj-5",
					"local" : 1,
					"maxclass" : "ezdac~",
					"numinlets" : 2,
					"numoutlets" : 0,
					"patching_rect" : [ 404.0, 348.0, 45.0, 45.0 ]
				}

			}
, 			{
				"box" : 				{
					"bubble" : 1,
					"bubbleside" : 3,
					"bubbletextmargin" : 2,
					"fontsize" : 12.0,
					"id" : "obj-12",
					"linecount" : 2,
					"maxclass" : "comment",
					"numinlets" : 1,
					"numoutlets" : 0,
					"patching_rect" : [ 94.070895582437515, 462.529429018497467, 76.0, 32.0 ],
					"text" : "filtered triggers"
				}

			}
, 			{
				"box" : 				{
					"bubble" : 1,
					"bubblepoint" : 0.0,
					"bubbleside" : 2,
					"bubbletextmargin" : 2,
					"fontsize" : 8.0,
					"id" : "obj-11",
					"maxclass" : "comment",
					"numinlets" : 1,
					"numoutlets" : 0,
					"patching_rect" : [ 404.70702400803566, 135.973264098167419, 36.566845417022705, 29.0 ],
					"text" : "phasor"
				}

			}
, 			{
				"box" : 				{
					"id" : "obj-9",
					"maxclass" : "newobj",
					"numinlets" : 1,
					"numoutlets" : 1,
					"outlettype" : [ "signal" ],
					"patching_rect" : [ 27.0, 359.727370098233223, 39.0, 22.0 ],
					"text" : "click~"
				}

			}
, 			{
				"box" : 				{
					"id" : "obj-7",
					"maxclass" : "scope~",
					"numinlets" : 2,
					"numoutlets" : 0,
					"patching_rect" : [ 184.283582329750061, 413.529429018497467, 130.0, 130.0 ],
					"range" : [ 0.0, 1.0 ]
				}

			}
, 			{
				"box" : 				{
					"bubble" : 1,
					"bubbleside" : 2,
					"bubbletextmargin" : 2,
					"fontsize" : 8.0,
					"id" : "obj-10",
					"maxclass" : "comment",
					"numinlets" : 1,
					"numoutlets" : 0,
					"patching_rect" : [ 375.295258074998856, 135.973264098167419, 26.0, 29.0 ],
					"text" : "diff"
				}

			}
, 			{
				"box" : 				{
					"bubble" : 1,
					"bubbleside" : 2,
					"bubbletextmargin" : 2,
					"fontsize" : 8.0,
					"id" : "obj-8",
					"maxclass" : "comment",
					"numinlets" : 1,
					"numoutlets" : 0,
					"patching_rect" : [ 349.969055086374283, 135.973264098167419, 26.0, 29.0 ],
					"text" : "lfo2"
				}

			}
, 			{
				"box" : 				{
					"bubble" : 1,
					"bubbleside" : 2,
					"bubbletextmargin" : 2,
					"fontsize" : 8.0,
					"id" : "obj-6",
					"maxclass" : "comment",
					"numinlets" : 1,
					"numoutlets" : 0,
					"patching_rect" : [ 322.329552561044693, 135.973264098167419, 26.0, 29.0 ],
					"text" : "lfo1"
				}

			}
, 			{
				"box" : 				{
					"color" : [ 1.0, 0.345098039215686, 0.298039215686275, 1.0 ],
					"id" : "obj-66",
					"maxclass" : "newobj",
					"numinlets" : 1,
					"numoutlets" : 1,
					"outlettype" : [ "signal" ],
					"patching_rect" : [ 299.069222986698151, 240.374671936035156, 29.0, 22.0 ],
					"text" : "thru",
					"textcolor" : [ 1.0, 0.345098039215686, 0.298039215686275, 1.0 ]
				}

			}
, 			{
				"box" : 				{
					"bgcolor" : [ 0.2, 0.2, 0.2, 0.0 ],
					"fgcolor" : [ 1.0, 0.345098039215686, 0.298039215686275, 1.0 ],
					"id" : "obj-65",
					"maxclass" : "scope~",
					"numinlets" : 2,
					"numoutlets" : 0,
					"patching_rect" : [ 184.283582329750061, 278.208561897277832, 130.0, 130.0 ],
					"saved_attribute_attributes" : 					{
						"fgcolor" : 						{
							"expression" : "themecolor.live_active_automation"
						}

					}

				}

			}
, 			{
				"box" : 				{
					"color" : [ 0.090196, 0.658824, 0.901961, 1.0 ],
					"id" : "obj-63",
					"maxclass" : "newobj",
					"numinlets" : 1,
					"numoutlets" : 1,
					"outlettype" : [ "signal" ],
					"patching_rect" : [ 260.514506012201309, 240.374671936035156, 29.0, 22.0 ],
					"text" : "thru",
					"textcolor" : [ 0.090196, 0.658824, 0.901961, 1.0 ]
				}

			}
, 			{
				"box" : 				{
					"color" : [ 0.250980392156863, 0.203921568627451, 0.937254901960784, 1.0 ],
					"id" : "obj-62",
					"maxclass" : "newobj",
					"numinlets" : 1,
					"numoutlets" : 1,
					"outlettype" : [ "signal" ],
					"patching_rect" : [ 222.581454396247864, 240.374671936035156, 29.0, 22.0 ],
					"text" : "thru",
					"textcolor" : [ 0.250980392156863, 0.203921568627451, 0.937254901960784, 1.0 ]
				}

			}
, 			{
				"box" : 				{
					"color" : [ 0.0, 0.854901960784314, 0.282352941176471, 1.0 ],
					"id" : "obj-61",
					"maxclass" : "newobj",
					"numinlets" : 1,
					"numoutlets" : 1,
					"outlettype" : [ "signal" ],
					"patching_rect" : [ 184.283582329750061, 240.374671936035156, 29.0, 22.0 ],
					"text" : "thru",
					"textcolor" : [ 0.0, 0.854901960784314, 0.282352941176471, 1.0 ]
				}

			}
, 			{
				"box" : 				{
					"bgcolor" : [ 0.2, 0.2, 0.2, 0.0 ],
					"fgcolor" : [ 0.250980392156863, 0.203921568627451, 0.937254901960784, 1.0 ],
					"id" : "obj-58",
					"maxclass" : "scope~",
					"numinlets" : 2,
					"numoutlets" : 0,
					"patching_rect" : [ 184.283582329750061, 278.208561897277832, 130.0, 130.0 ],
					"saved_attribute_attributes" : 					{
						"fgcolor" : 						{
							"expression" : "themecolor.live_midi_assignment"
						}

					}

				}

			}
, 			{
				"box" : 				{
					"bgcolor" : [ 0.2, 0.2, 0.2, 0.0 ],
					"fgcolor" : [ 0.0, 0.854901960784314, 0.282352941176471, 1.0 ],
					"id" : "obj-19",
					"maxclass" : "scope~",
					"numinlets" : 2,
					"numoutlets" : 0,
					"patching_rect" : [ 184.283582329750061, 278.208561897277832, 130.0, 130.0 ],
					"range" : [ 0.0, 1.0 ],
					"saved_attribute_attributes" : 					{
						"fgcolor" : 						{
							"expression" : "themecolor.live_macro_assignment"
						}

					}

				}

			}
, 			{
				"box" : 				{
					"bgcolor" : [ 0.0, 0.0, 0.0, 1.0 ],
					"fgcolor" : [ 0.090196, 0.658824, 0.901961, 1.0 ],
					"id" : "obj-59",
					"maxclass" : "scope~",
					"numinlets" : 2,
					"numoutlets" : 0,
					"patching_rect" : [ 184.283582329750061, 278.208561897277832, 130.0, 130.0 ],
					"saved_attribute_attributes" : 					{
						"fgcolor" : 						{
							"expression" : "themecolor.maxwindow_bugtext"
						}

					}

				}

			}
, 			{
				"box" : 				{
					"columns" : 4,
					"id" : "obj-4",
					"maxclass" : "matrixctrl",
					"numinlets" : 1,
					"numoutlets" : 2,
					"one/column" : 1,
					"one/row" : 1,
					"outlettype" : [ "list", "list" ],
					"parameter_enable" : 0,
					"patching_rect" : [ 322.523502767086029, 166.845257103443146, 101.764704704284668, 38.352940022945404 ],
					"rows" : 2
				}

			}
, 			{
				"box" : 				{
					"id" : "obj-2",
					"maxclass" : "newobj",
					"numinlets" : 4,
					"numoutlets" : 3,
					"outlettype" : [ "signal", "signal", "" ],
					"patching_rect" : [ 94.070895582437515, 178.698229432106018, 220.212686747312546, 22.0 ],
					"text" : "matrix~ 4 2"
				}

			}
, 			{
				"box" : 				{
					"bgmode" : 0,
					"border" : 0,
					"clickthrough" : 0,
					"enablehscroll" : 0,
					"enablevscroll" : 0,
					"id" : "obj-1",
					"lockeddragscroll" : 0,
					"lockedsize" : 0,
					"maxclass" : "bpatcher",
					"name" : "nls.cross_seq2BP~.maxpat",
					"numinlets" : 9,
					"numoutlets" : 5,
					"offset" : [ 0.0, 0.0 ],
					"outlettype" : [ "signal", "signal", "signal", "signal", "signal" ],
					"patching_rect" : [ 27.0, 24.0, 287.283582329750061, 122.507462739944458 ],
					"varname" : "nls.cross_seq2BP~",
					"viewvisibility" : 1
				}

			}
, 			{
				"box" : 				{
					"bgmode" : 0,
					"border" : 0,
					"clickthrough" : 0,
					"enablehscroll" : 0,
					"enablevscroll" : 0,
					"id" : "obj-3",
					"lockeddragscroll" : 0,
					"lockedsize" : 0,
					"maxclass" : "bpatcher",
					"name" : "nls.trigger_logicBP.maxpat",
					"numinlets" : 3,
					"numoutlets" : 1,
					"offset" : [ 0.0, 0.0 ],
					"outlettype" : [ "signal" ],
					"patching_rect" : [ 27.0, 229.0, 111.489626586437225, 98.925311177968979 ],
					"varname" : "nls.trigger_logicBP",
					"viewvisibility" : 1
				}

			}
 ],
		"lines" : [ 			{
				"patchline" : 				{
					"destination" : [ "obj-2", 3 ],
					"source" : [ "obj-1", 4 ]
				}

			}
, 			{
				"patchline" : 				{
					"destination" : [ "obj-2", 2 ],
					"order" : 1,
					"source" : [ "obj-1", 3 ]
				}

			}
, 			{
				"patchline" : 				{
					"destination" : [ "obj-2", 1 ],
					"order" : 1,
					"source" : [ "obj-1", 2 ]
				}

			}
, 			{
				"patchline" : 				{
					"destination" : [ "obj-2", 0 ],
					"order" : 1,
					"source" : [ "obj-1", 1 ]
				}

			}
, 			{
				"patchline" : 				{
					"destination" : [ "obj-3", 0 ],
					"order" : 1,
					"source" : [ "obj-1", 0 ]
				}

			}
, 			{
				"patchline" : 				{
					"destination" : [ "obj-61", 0 ],
					"midpoints" : [ 36.5, 216.0, 193.783582329750061, 216.0 ],
					"order" : 0,
					"source" : [ "obj-1", 0 ]
				}

			}
, 			{
				"patchline" : 				{
					"destination" : [ "obj-62", 0 ],
					"midpoints" : [ 103.570895582437515, 165.0, 81.0, 165.0, 81.0, 216.0, 232.081454396247864, 216.0 ],
					"order" : 0,
					"source" : [ "obj-1", 1 ]
				}

			}
, 			{
				"patchline" : 				{
					"destination" : [ "obj-63", 0 ],
					"midpoints" : [ 170.641791164875031, 165.0, 315.0, 165.0, 315.0, 225.0, 270.014506012201309, 225.0 ],
					"order" : 0,
					"source" : [ "obj-1", 2 ]
				}

			}
, 			{
				"patchline" : 				{
					"destination" : [ "obj-66", 0 ],
					"midpoints" : [ 237.712686747312546, 165.0, 315.0, 165.0, 315.0, 225.0, 308.569222986698151, 225.0 ],
					"order" : 0,
					"source" : [ "obj-1", 3 ]
				}

			}
, 			{
				"patchline" : 				{
					"destination" : [ "obj-3", 2 ],
					"source" : [ "obj-2", 1 ]
				}

			}
, 			{
				"patchline" : 				{
					"destination" : [ "obj-3", 1 ],
					"source" : [ "obj-2", 0 ]
				}

			}
, 			{
				"patchline" : 				{
					"destination" : [ "obj-9", 0 ],
					"source" : [ "obj-3", 0 ]
				}

			}
, 			{
				"patchline" : 				{
					"destination" : [ "obj-2", 0 ],
					"midpoints" : [ 332.023502767086029, 216.0, 81.0, 216.0, 81.0, 174.0, 103.570895582437515, 174.0 ],
					"source" : [ "obj-4", 0 ]
				}

			}
, 			{
				"patchline" : 				{
					"destination" : [ "obj-19", 0 ],
					"source" : [ "obj-61", 0 ]
				}

			}
, 			{
				"patchline" : 				{
					"destination" : [ "obj-58", 0 ],
					"source" : [ "obj-62", 0 ]
				}

			}
, 			{
				"patchline" : 				{
					"destination" : [ "obj-59", 0 ],
					"source" : [ "obj-63", 0 ]
				}

			}
, 			{
				"patchline" : 				{
					"destination" : [ "obj-65", 0 ],
					"source" : [ "obj-66", 0 ]
				}

			}
, 			{
				"patchline" : 				{
					"destination" : [ "obj-7", 0 ],
					"source" : [ "obj-9", 0 ]
				}

			}
 ],
		"parameters" : 		{
			"obj-1::obj-13" : [ "interpolate[1]", "phase2", 0 ],
			"obj-1::obj-17" : [ "live.button[8]", "live.button", 0 ],
			"obj-1::obj-32" : [ "live.button[9]", "live.button[9]", 0 ],
			"obj-1::obj-34" : [ "live.button[10]", "live.button[9]", 0 ],
			"obj-1::obj-4" : [ "pw1", "pw1", 0 ],
			"obj-1::obj-48" : [ "live.menu[6]", "live.menu", 0 ],
			"obj-1::obj-49" : [ "live.menu[7]", "live.menu", 0 ],
			"obj-1::obj-5" : [ "pw2", "pw2", 0 ],
			"obj-1::obj-9" : [ "interpolate[4]", "phase1", 0 ],
			"obj-3::obj-103" : [ "live.toggle[6]", "live.toggle", 0 ],
			"obj-3::obj-23" : [ "live.toggle[9]", "live.toggle", 0 ],
			"obj-3::obj-71" : [ "live.menu[81]", "live.menu[3]", 0 ],
			"obj-3::obj-76" : [ "live.menu[80]", "live.menu[3]", 0 ],
			"obj-3::obj-79" : [ "live.button[18]", "live.button", 0 ],
			"obj-3::obj-80" : [ "live.menu[83]", "live.menu[3]", 0 ],
			"obj-3::obj-83" : [ "live.menu[82]", "live.menu[3]", 0 ],
			"obj-3::obj-92" : [ "live.toggle[7]", "live.toggle", 0 ],
			"parameterbanks" : 			{
				"0" : 				{
					"index" : 0,
					"name" : "",
					"parameters" : [ "-", "-", "-", "-", "-", "-", "-", "-" ]
				}

			}
,
			"inherited_shortname" : 1
		}
,
		"dependency_cache" : [ 			{
				"name" : "nls.cross_seq2BP~.maxpat",
				"bootpath" : "~/OneDrive/Documents/Max 8/Packages/NonlinearSequencer/externals",
				"patcherrelativepath" : "../externals",
				"type" : "JSON",
				"implicit" : 1
			}
, 			{
				"name" : "nls.cross_seq2~.mxe64",
				"type" : "mx64"
			}
, 			{
				"name" : "nls.trigger_logicBP.maxpat",
				"bootpath" : "~/OneDrive/Documents/Max 8/Packages/NonlinearSequencer/externals",
				"patcherrelativepath" : "../externals",
				"type" : "JSON",
				"implicit" : 1
			}
, 			{
				"name" : "nls.trigger_logic~.mxe64",
				"type" : "mx64"
			}
, 			{
				"name" : "thru.maxpat",
				"bootpath" : "C74:/patchers/m4l/Pluggo for Live resources/patches",
				"type" : "JSON",
				"implicit" : 1
			}
 ],
		"autosave" : 0
	}

}
